<?xml version="1.0" encoding="UTF-8" standalone="no"?>
<svg
   viewBox="0 0 640 640"
   version="1.1"
   id="svg1"
   sodipodi:docname="icon-test.svg"
   inkscape:version="1.4.4 (dcaf3e7d9e, 2026-05-05)"
   xmlns:inkscape="http://www.inkscape.org/namespaces/inkscape"
   xmlns:sodipodi="http://sodipodi.sourceforge.net/DTD/sodipodi-0.dtd"
   xmlns="http://www.w3.org/2000/svg"
   xmlns:svg="http://www.w3.org/2000/svg">
  <sodipodi:namedview
     id="namedview1"
     pagecolor="#505050"
     bordercolor="#eeeeee"
     borderopacity="1"
     inkscape:showpageshadow="0"
     inkscape:pageopacity="0"
     inkscape:pagecheckerboard="0"
     inkscape:deskcolor="#505050"
     inkscape:zoom="0.06403047"
     inkscape:cx="-2319.2083"
     inkscape:cy="593.46745"
     inkscape:window-width="1876"
     inkscape:window-height="1544"
     inkscape:window-x="0"
     inkscape:window-y="0"
     inkscape:window-maximized="0"
     inkscape:current-layer="svg1" />
  <defs
     id="defs1">
    <style
       id="current-color-scheme"
       type="text/css">.ColorScheme-Text{color:#232629}</style>
  </defs>
  <path
     id="path1"
     class="ColorScheme-Text"
     d="M 9.4296875 6.5097656 L 122.41992 318.69922 L 9.4296875 630.89062 L 124.23047 630.89062 L 170.65039 503.33008 C 176.74039 497.91008 184.66039 493.14055 196.40039 488.81055 C 207.07039 486.79055 207.40945 482.32945 212.68945 487.18945 C 205.12945 494.81945 183.84906 513.19016 192.03906 519.91016 C 189.54906 523.14016 190.38937 529.24961 193.35938 536.34961 L 167.18945 536.34961 L 167.18945 631.19922 L 632.18945 631.19922 L 632.18945 536.34961 L 561.58984 536.34961 C 561.85984 528.31961 560.6407 520.52984 557.9707 515.58984 C 554.5107 501.88984 545.67008 484.67977 535.58008 478.00977 C 531.59008 468.15977 523.35938 458.94977 510.85938 457.00977 C 503.11937 454.97977 504.76008 452.9307 509.58008 448.9707 C 528.34008 448.4207 541.05055 441.46984 550.06055 463.58984 C 568.21055 477.50984 583.12086 505.04906 587.88086 517.28906 C 599.78086 499.14906 595.39953 472.70906 585.26953 454.78906 C 576.86953 441.62906 566.00047 428.94086 552.73047 426.63086 C 552.15047 421.63086 543.7293 419.23086 538.5293 417.63086 C 521.9293 416.61086 518.43055 417.05961 512.81055 418.59961 C 520.03055 411.82961 523.65922 413.83906 533.44922 405.03906 C 565.01922 405.63906 567.77016 367.64031 595.66016 364.32031 C 626.04016 347.92031 635.2007 311.12023 633.2207 278.99023 C 631.7107 254.24023 622.64078 226.65023 602.30078 210.99023 C 593.94078 222.20023 603.88062 246.57023 580.14062 250.49023 C 585.74063 265.36023 566.65 275.82078 562.5 280.05078 C 547.98 269.62078 567.47914 252.93008 553.36914 241.58008 C 553.43914 231.46008 556.98922 224.25961 554.94922 209.34961 C 516.34922 220.84961 491.82977 264.2007 497.50977 302.2207 C 499.08977 327.2207 522.41078 343.07906 508.55078 368.03906 C 506.08078 378.47906 490.7007 390.47078 477.2207 375.80078 C 464.3507 351.63078 433.93055 352.49906 411.31055 344.28906 C 409.72055 316.90906 452.18016 328.28992 452.66016 298.41992 C 460.32016 271.05992 431.56094 242.94977 404.46094 252.75977 C 378.20094 258.65977 366.91945 295.20047 386.93945 313.98047 C 393.05945 341.68047 363.95984 341.58 344.58984 339.25 C 329.18984 339.75 328.06922 308.55063 343.94922 301.89062 C 356.66922 280.74063 351.3307 251.65945 331.9707 236.18945 C 301.1507 208.66945 244.06906 235.38953 246.28906 277.01953 C 246.83906 304.34953 270.79 329.27047 298.75 327.23047 C 315.25 360.10047 248.14937 344.38906 236.10938 364.28906 A 82 82 0 0 0 219.56055 368.91992 L 237.23047 320.36914 L 124.25977 6.5097656 L 9.4296875 6.5097656 z M 37.939453 26.509766 L 110.19922 26.509766 L 215.96094 320.33984 L 110.2207 610.89062 L 37.939453 610.89062 L 143.68945 318.68945 L 37.939453 26.509766 z M 550.3418 219.99805 C 548.24145 230.74109 538.46676 241.13521 549.48438 250.88281 C 545.14365 264.28902 545.28172 276.15005 556.74609 286.44141 C 558.98582 304.83511 532.27042 320.01313 536.71094 342.61328 C 523.36829 346.74443 508.45944 316.63434 507.83594 301.32812 C 503.32347 269.41831 517.11208 230.04448 550.3418 219.99805 z M 606.10742 223.42969 C 610.99273 230.065 614.96763 237.35939 617.99023 245.02148 C 629.56937 276.44148 628.60456 315.97103 607.28125 343.08984 C 593.34766 360.32744 569.20128 365.71763 549.48438 355.55078 C 541.70792 336.44478 551.47782 313.69873 565.58008 299.93945 C 570.89533 282.13949 592.55537 275.29594 590.26172 255.52539 C 602.3287 249.89284 604.1891 233.3984 606.10742 223.42969 z M 317.99219 319.45117 C 318.62018 319.4329 319.28061 319.45157 319.97461 319.50977 C 321.39535 327.02972 324.14955 334.19749 327.69531 340.95703 C 310.35567 355.93242 298.52436 320.01752 317.99219 319.45117 z M 395.47266 320.36719 C 410.50845 320.41885 401.56429 333.21772 399.76172 341.81445 C 379.77434 346.03885 393.98972 330.83803 395.47266 320.36719 z M 365.67578 349.67773 C 379.72582 349.97045 393.77755 351.39567 407.58398 353.41797 C 428.24604 360.24326 455.75465 359.54427 469.69531 376.07422 C 481.5762 394.49829 495.33432 412.99418 495.92969 434.55469 C 490.25544 450.21137 482.35218 450.17326 470.36133 462.9707 C 459.51843 485.07651 428.62783 497.80025 387.50781 502.45898 C 349.03046 505.28396 324.2321 503.33407 285.84766 499.2832 C 264.34785 497.33644 242.81172 488.53042 228.03125 475.12891 C 214.75522 461.66912 192.16502 441.34543 204.16016 424.60352 C 226.32394 433.70763 223.61178 460.48004 248.31836 470.76367 C 278.10295 486.53951 319.2022 492.47386 351.75195 479.14062 C 374.61077 471.38879 354.80103 462.61023 340.34961 461.0293 C 339.48569 446.75079 316.06593 451.49761 313.8125 437.32227 C 311.53637 424.76118 339.37974 444.48652 346.55469 435.91016 C 355.97826 441.57272 381.29584 454.41837 372.97656 432.25977 C 363.05385 394.08765 304.61614 376.92936 263.41016 390.77148 C 242.89811 399.21216 239.40729 380.24056 245.43555 368.2168 C 268.99089 356.33474 297.75574 358.1549 323.77344 352.73438 C 337.57619 350.22517 351.62575 349.38502 365.67578 349.67773 z M 525.46289 350.40234 C 533.42388 355.6364 540.92884 361.7355 549.95508 365.17773 C 580.50146 367.63745 551.2273 394.27215 534.90039 395.01562 C 510.08642 397.98883 516.80844 361.54753 525.46289 350.40234 z M 235.90625 375.84766 C 236.15775 378.2858 235.49784 380.98244 233.29102 382.75391 C 215.50724 385.47674 220.31192 376.47076 235.90625 375.84766 z M 509.16211 384.7207 C 509.22755 387.86569 510.35748 390.93021 511.97461 393.59766 C 529.32391 403.04612 514.97705 410.63943 502 412.45312 C 486.30577 406.58206 492.56599 387.01882 509.16211 384.7207 z M 212.53711 388.22656 C 217.51466 388.44342 222.20812 390.06455 226.99805 391.09375 C 262.24494 393.30423 221.24606 410.24287 221.31836 426.01367 C 214.47836 424.58629 207.81388 418.93299 203.74609 412.38477 L 203.74609 412.38281 L 212.53711 388.22656 z M 299.56836 393.85547 C 328.40177 395.42865 357.14065 408.6939 364.02148 432.91406 C 360.70491 437.87589 346.32576 422.81045 334.83984 429.91406 C 322.40857 417.70777 297.33091 437.56293 289.36719 417.92188 C 283.46092 406.0553 241.31741 402.10168 271.50977 396.20703 C 280.33564 394.10569 289.95722 393.33108 299.56836 393.85547 z M 249.33789 408.48633 C 266.24455 408.60661 280.12636 418.51904 289.5 429.81641 C 302.83708 439.69981 310.43846 452.9365 329.41992 457.10742 C 321.90674 469.74894 358.59029 468.6205 344.7832 474.10156 C 310.47668 483.20649 267.41626 478.85637 241.7168 456.62891 C 225.99732 443.6733 226.68219 422.00787 241.91211 409.05859 C 244.44651 408.65153 246.92265 408.46914 249.33789 408.48633 z M 534.47461 422.44336 C 543.35538 422.64745 549.6765 425.61654 543.04492 435.45508 C 531.86001 442.94141 487.13689 445.98846 510.54688 426.01758 C 514.15386 424.79994 525.59384 422.23927 534.47461 422.44336 z M 554.19922 433.73438 C 572.64064 445.01938 585.56875 470.3531 589.19922 492.05859 C 592.14326 514.35624 584.93412 497.28139 579.6875 487.03906 C 571.35732 470.06679 546.40932 454.78476 554.19922 433.73438 z M 201.66211 457.12695 C 222.68824 467.6769 193.99728 477.96846 178.61133 481.41992 L 186.25195 460.42578 C 192.19753 458.81551 198.07539 457.7588 201.66211 457.12695 z M 483.84766 462.04688 L 486.65234 462.10156 C 500.01307 461.24397 544.90896 473.19679 519.34375 486.08008 C 508.37475 480.57726 467.63031 478.77141 483.84766 462.04688 z M 481.11914 483.28906 C 497.55914 494.71906 525.84039 487.36906 522.40039 513.78906 C 524.92039 521.36906 527.97961 528.79961 530.59961 536.34961 L 499.9707 536.34961 C 503.9407 520.61961 503.40977 503.77094 488.00977 494.46094 C 477.97977 487.99094 475.38914 484.15906 481.11914 483.28906 z M 230.57422 486.63086 C 253.68062 490.3459 220.53852 510.42516 213.5957 516.09375 C 185.49223 517.32353 220.72757 491.09566 230.57422 486.63086 z M 536.18164 486.92578 C 540.91055 493.37136 543.71251 500.86628 546.30664 508.34961 C 554.03871 518.15168 551.81726 564.97941 544.99414 551.55078 C 544.65002 530.31977 518.46936 503.42236 536.18164 486.92578 z M 461.54297 487.78516 C 467.91627 493.51836 503.56092 511.86305 486.87695 518.86719 C 474.03953 519.99375 443.71402 494.55153 461.54297 487.78516 z M 255.25 500.71094 C 262.82 500.59094 271.64953 503.41906 282.26953 509.28906 C 323.24953 515.40906 350.29078 519.52961 386.30078 510.34961 C 408.47078 512.81961 447.03039 487.29039 461.15039 516.15039 C 470.65039 521.18039 470.89961 528.40961 467.84961 536.34961 L 228.34961 536.34961 C 224.68961 528.61961 223.72 521.39086 231.25 515.63086 C 237.88 505.90086 245.52 500.87094 255.25 500.71094 z M 203.30469 525.5332 C 209.26848 525.75454 213.84662 530.22761 217.51562 536.34961 L 204.27734 536.34961 C 203.53049 532.70911 203.19394 529.05202 203.30469 525.5332 z M 490.71094 528.10742 C 490.78069 530.70237 490.56869 533.48701 490.0918 536.34961 L 477.46094 536.34961 C 480.44847 531.70709 484.49564 528.47794 490.71094 528.10742 z M 187.17969 556.34961 L 612.17969 556.34961 L 612.17969 611.19922 L 187.17969 611.19922 L 187.17969 556.34961 z " />
  <g
     id="g2"
     fill="#b7410e"
     transform="translate(19.76136,18.54685)" />
</svg>
