<svg xmlns="http://www.w3.org/2000/svg" width="640" height="640" preserveAspectRatio="xMidYMid">
  <path fill="#471905" d="M530.5 158.9c-17.18 5.4-34.52 19.4-42.85 35.34a99.29 99.29 0 0 0-6.34 15.95c-7.2 23.33-5.52 50.48 5.8 72.26a36.9 36.9 0 0 0 6.57 7.97c1.01 1.5 1.01 1.5.82 3.6a87.43 87.43 0 0 1-1.84 5.46c-2.59 7.64-4.43 15.89-3.94 23.98l-2.28.66a25.62 25.62 0 0 0-7.26 4.2c-4.62 3.47-9.41 6.6-14.33 9.64l-.58-1.72c-2.35-5.3-6.03-9.93-9.4-14.63-.87-1.22-1.7-2.47-2.51-3.72-10-13.84-38.6-18.07-54.2-21.93a50.3 50.3 0 0 1-6.64-2.34c.59-2.52 1.2-5.02 1.88-7.51.68-2.72.68-2.72.93-4.83.4-2.2.7-3.15 2.3-4.72 2.74-.74 5.39-1.2 8.2-1.59 9-1.33 15.9-6.05 21.67-13.04 6.58-9.44 8.16-18.47 6.8-29.7-1.93-10.68-7.4-19.24-16.2-25.58a41.42 41.42 0 0 0-6.82-3.42l-1.9-.77c-10.71-3.78-21.25-2.1-31.36 2.48-9.18 5.3-14.76 12.43-18.75 22.17-2.33 8.71-1.8 18.63 2.06 26.74a49 49 0 0 0 4.6 6.3c2.16 2.63 2.69 3.48 3.24 6.98-.76 7.47-3.65 15.97-9.05 21.37-2.12.07-4.2.08-6.31.05h-1.95l-8.24-.07c-19.83-.15-19.83-.15-23.58 1.73l-.64-2.08a74.15 74.15 0 0 0-2.77-6.77 43.81 43.81 0 0 1-3.4-10.76l-.35-1.74c-.19-1.73-.19-1.73.34-5.09a36.65 36.65 0 0 1 4.92-4.34c6.95-5.95 12.4-16.17 13.2-25.32.9-21.56.9-21.56-4.48-30.88l-1.33-2.43c-6.84-11.55-16.3-20.93-29.36-24.85-15.8-3.45-31.78-.85-45.42 7.72-9.1 6.44-17.03 14.64-20.24 25.53l-.71 1.81c-3.57 9.7-2.8 21 .71 30.6l.72 2.16c2.02 5.62 5.04 10.17 8.66 14.89l1.22 1.65c6.72 8.52 16.06 12.07 26.07 15.4a188.24 188.24 0 0 0 8.36.59c1.48.1 2.95.18 4.43.26 2.33 6.67 3.99 12.52 3.4 19.62-2.5.83-4.78 1.09-7.41 1.3-7.67.68-15.23 1.82-22.8 3.22l-2.75.49c-12.66 2.44-25.1 7.95-33.54 18l-.85 1.71c-2 .67-4 1.26-6.02 1.81-13.57 4.03-26.56 10.34-34.06 22.92-4.16 8.25-3.3 17.52-.72 26.14.72 2 .72 2 1.71 3.7 1.82 4.34-1.47 10.3-2.83 14.53-.72 2.53-.72 2.53-.72 5.09l-2.68-.69c-3.09-.79-6.19-1.55-9.28-2.3a300.9 300.9 0 0 1-3.97-1.03c-4.53-1.08-8.96-1.27-13.59-1.31l-1.82-.03c-6.17.04-11.91 1.27-17.26 4.5-2.56 2.82-2.56 2.82-2.56 5.12l-2.08.48c-4.18 1.69-7.25 4.35-10.7 7.2l-2.57 1.91C94.41 418.68 84.9 434.4 78.8 448l-.76 1.68c-4.28 9.87-5.84 22.24-2.9 32.7 1.8 3.83 3.93 6.98 7.71 9.06 2.13.53 2.13.53 4.27 0 3.82-3.96 5.9-8.26 8.2-13.22a90.7 90.7 0 0 1 13.96-20.89l2.57-2.97 1.3-1.5 1.3-1.5 1.3-1.49c7.07-8.23 12.94-16.73 17.41-26.65l1.86.83c2.37.87 4.23 1.17 6.73 1.33l2.55.17 2.72.18a474.65 474.65 0 0 1 28.79 2.96l2.24.3c2 .2 2 .2 5.42.2v2.56c-.49.01-.98.03-1.49.03-14.3.8-31.99 5.5-42.65 15.64-1.68 2.2-2.6 4.62-3.6 7.18-.87 1.9-1.76 3-3.21 4.49-5.93 6.44-9.95 16.28-12.15 24.67l-.66 2.47c-.65 2.58-1.28 5.17-1.9 7.77l-.51 2.09c-3.39 14.38-3.7 29.17 3.27 42.46 2.95 4.59 6.34 6.82 11.47 8.47 2.83-.16 2.83-.16 5.06-1.79 2.74-3.56 2.86-6.5 3.26-10.9 1.35-11.7 5.22-21.93 9.53-32.82 3.7-9.31 7.15-18.65 6.3-28.83l2.87.21c3.82 0 6.57-1.15 10.02-2.67a62.53 62.53 0 0 1 8.42-2.44c7.25-1.85 13.82-4.86 20.58-8.02a103 103 0 0 1 5.85-2.43l1.7 2.56-2.77 1.87c-24.1 16.5-24.1 16.5-28.77 27.12-.79 4.98.03 9.58.85 14.5 0 1.5-.02 3.01-.05 4.52-.1 14.71 7.82 30.2 17.84 40.71 6.22 6.23 13.46 11.02 22.5 11.3 3.92-.32 6.37-.87 9.17-3.67 1.2-6.14-1.13-10.97-3.9-16.3l-2.35-4.76-1.18-2.33c-1.5-2.97-2.9-5.98-4.3-9.01-2.85-6.15-2.85-6.15-4.24-9.1l-1.41-3-1.25-2.64a28.34 28.34 0 0 1-1.84-5.72c8.08-7.31 8.08-7.31 11.78-10.45 5.15-4.47 9.87-9.43 14.65-14.28l1.72.7c3.65 1.44 7.34 2.8 11.02 4.16.3.1.3.1 1.75.65l1.76.65a66.3 66.3 0 0 1 4.48 2.04c4.22 1.58 8.22 1.8 12.7 2.08 6.04.45 11.97.99 17.95 2.1 7.9 1.35 15.87 1.4 23.86 1.4l3.5.01 7.34.01c2.46 0 4.9 0 7.35.02 22.38.1 44.83-.22 66.88-4.44l2.58-.48c2.81-.52 5.64-1.06 8.45-1.6l2.63-.5c14.6-2.91 14.6-2.91 20.44-6.8l.6 1.44c1.4 2.48 3.13 4.21 5.14 6.22l1.2 1.22 2.54 2.52a535 535 0 0 1 3.8 3.82c4.4 4.4 8.85 8.54 14.01 12.06-1.37 3.53-2.9 6.98-4.46 10.42-.26.6-.54 1.18-.81 1.79l-1.7 3.75-2.54 5.6c-3.1 6.85-6.32 13.6-9.82 20.26-1.7 3.8-1.93 6.11-1.13 10.2 1.49 2.18 1.49 2.18 4.26 3.4 8.95 1.26 15.92-1.1 23.07-6.39 8.81-7.5 14.1-17.29 18.71-27.7.25-.54.5-1.07.74-1.62 2.03-4.76 2.22-9.24 2.3-14.38l.1-4.73.04-2.09c.26-2.11.94-3.46 1.94-5.33.8-5.05-.78-8.15-3.47-12.28-6.43-8.62-15.12-14.8-23.82-20.97l-1.5-1.06c-3.4-2.35-3.4-2.35-5.32-2.35l.85-3.41 1.91.84c21.28 9.38 21.28 9.38 31.87 12.96l2.1.72c4.78 1.56 9.42 2.2 14.43 2.53l-.08 1.59c-.14 5.36.57 9.8 2.21 14.88l.68 2.19c2.24 7.02 4.86 13.9 7.57 20.76a1776923.74 1776923.74 0 0 1 2.28 5.95c2.13 5.87 2.7 11.78 3.31 17.96.7 6.06.7 6.06 2.7 8.84 2.73 1.77 4.57 1.6 7.76 1.16 7.51-3.84 11.1-10.14 13.64-17.9 3.14-10.8 1.28-24.34-1.7-34.97l-.72-3.05c-3.02-12.43-7.33-23.63-15.48-33.61-1.77-2.2-2.58-3.49-3.46-6.23-2.71-6.56-10.85-9.62-16.92-12.32-4.6-1.84-9.32-3.07-14.1-4.31l-2.99-.81c-7.25-1.91-7.25-1.91-11.13-1.91v-1.7l1.57-.08c5.42-.28 10.84-.57 16.26-.88l6.07-.32 8.74-.47 2.72-.13c5.2-.32 9.32-1.14 14.1-3.24l.29 1.84c2.48 10.81 10.74 20.2 17.45 28.77 6.91 8.85 12.68 17.6 16.92 28.04 3.93 9.43 3.93 9.43 7.97 12.12 2.44.38 2.44.38 5.11 0 5.06-3.97 7.73-9.01 8.53-15.35.45-8.2.12-15.22-2.56-23.02l-.73-2.17a117.25 117.25 0 0 0-7.1-16.11l-1.25-2.35c-5.13-9.55-11.63-17.54-19.06-25.41l-1.6-1.74a34.29 34.29 0 0 0-10.34-7.64h-1.7l-.59-1.92c-1.68-3.53-3.67-5.07-7.3-6.53-11.63-3.7-25.06-2.4-36.45 1.62l.12-1.53c.27-6.16-1.18-10.83-3.53-16.47l-.99-2.48c-.8-2-1.6-3.97-2.42-5.95l2.58-.28a40.5 40.5 0 0 0 9.78-2.92l1.7-.69c5.64-2.37 10.6-4.75 13.22-10.6v-2.56l2.78.21c12.08-.1 23.73-8.35 32.27-16.33 3.74-4.14 6.42-8.57 7.49-14.05.55-1.66.55-1.66 1.8-3.09a63.45 63.45 0 0 1 8.19-2.13c9.16-1.9 16.28-7.34 23.36-13.21l1.56-1.21c16.07-12.89 22.27-34.21 24.5-53.9 2.82-30.15-1.97-57.79-20.53-82.2-3.58-4.28-7.05-7.88-12.61-9.14-3.14.88-3.94 2.2-5.7 4.9-.43 2.61-.43 2.61-.43 5.5l-.06 3.16v3.28c0 2.15-.02 4.3-.06 6.45v2.88c-.35 2.92-1.13 4.5-2.87 6.87-1.84 1.23-1.84 1.23-3.84 2.18-2.96 1.44-4.86 2.52-6.4 5.5-.4 3.2-.32 6.44-.29 9.68-.08 3.64-.2 5.2-2.5 8.17a25.64 25.64 0 0 1-5.83 3.51c-2.76 1.3-4.4 2.29-5.87 5.07-.58 1.7-1.15 3.4-1.7 5.11-.47-.65-.95-1.31-1.43-2l-1.88-2.58-1.85-2.58c-1.66-2.22-1.66-2.22-3.37-3.92.16-3.35 1.19-5.93 2.61-8.9 1.6-3.46 2.17-6 1.65-9.86-1.13-2.9-2.12-4.72-4.42-6.82-1.54-1.7-1.54-1.7-1.88-3.8.58-5.24 3.06-9.84 5.2-14.61 4.5-10.42 4.5-10.42 3.66-15.7-3.78-3.58-7.13-2.77-11.93-1.7z"/>
  <path fill="#b7410e" d="M304.9 302.4c-5.07 1.05-10.17 1.91-15.28 2.78-.5.1-.5.1-3.07.54-7.31 1.25-14.63 2.3-21.97 3.3-13.62 1.89-25.78 4.62-37.53 12.05-1.87 3.04-1.03 7.09-.85 10.56.14 4.26-.46 6.8-2.66 10.6v1.7l1.35.6c3.16 1.48 5.31 2.64 7.77 5.2l1.97 1.87c3.66-.3 6.93-1.88 10.28-3.3a67.5 67.5 0 0 1 28.09-5.6l3.03.02c23 .43 44.32 8.09 61.01 24.27 11.08 11.78 18.09 27.09 17.96 43.33-.15 1.82-.15 1.82-1 4.38-3.33 1.1-5 1.32-8.21-.24a148.3 148.3 0 0 1-12.63-9.08c-1.33-.91-1.33-.91-3.03-.91v-1.71H325v1.7c-5.05 1.44-10.05 1.86-14.76-.63a99.55 99.55 0 0 1-4.37-3.9c-2.19-1.43-2.19-1.43-5.12-1.33a77.9 77.9 0 0 0-8.15 2.45v1.71l2.4 1.7c2.64 2.05 3.13 3.65 3.78 6.88.68 2.73.98 3.86 3.33 5.46 2.21.88 4.39 1.57 6.69 2.16 6.83 1.87 6.83 1.87 9.38 4.26.59 2.03.59 2.03.85 4.27.47 3.92.47 3.92 2.34 5.58a19.03 19.03 0 0 0 6.06 2.52l2.36.64 4.91 1.28c.79.21 1.56.41 2.37.64l2.15.56c2.15.77 3.64 1.82 5.4 3.27-.44 3.79-1.61 5.8-4.27 8.53a69 69 0 0 1-5.97 3.41c-.55.33-1.1.67-1.68 1-22.5 12.75-51.07 9.62-74.84 3.26-20.12-6.17-38.04-17.53-49.19-35.8-3-5.74-5.64-11.98-5.92-18.5-.1-.46-.1-.46-.54-2.83-2.55-1.27-2.55-1.27-4.16-1.77-3.14-1.36-5.38-3.86-7.84-6.2-1.64-1.4-1.64-1.4-3.34-1.4l-.86-2.56-2.55.85c-3.5 12.31.87 23.35 6.82 34.1 4.67 7.9 10.37 15.12 16.2 22.18.36.45.73.9 1.12 1.35 11.25 13.55 25.31 22.36 42.07 27.48 2.85 1.01 2.85 1.01 4.94 2.38 2.93 1.6 5.64 1.57 8.9 1.61 4.96.15 9.76.56 14.66 1.36 14.06 2.23 28.19 2.02 42.39 1.96 3.68-.02 7.36 0 11.05.01 22.65.08 45.39-.43 67.57-5.46l3.06-.64c4.96-1.06 9.43-2.3 14-4.47l4.16-1.55c16.12-6.48 28.03-22.08 39.16-34.85l1.29-1.46c2.22-2.6 3.8-4.92 4.84-8.19h1.7c2.56-3.73 2.56-3.73 2.56-5.97h1.71c5.75-8 10.2-16.44 9.38-26.43-1.2-6.74-3.92-12.74-6.9-18.87-.85-1.76-1.68-3.54-2.5-5.31l-1.79-3.85-.84-1.81a98.77 98.77 0 0 0-8.32-14.71 76.05 76.05 0 0 1-4.9-8.37c-4.48-8.42-10.8-19.04-19.94-22.44-3.4-1.26-6.75-2.56-10.07-3.99-4.65-1.87-9.46-2.97-14.32-4.14-4.1-1-8.16-2.1-12.23-3.22l-2.03-.55c-4.74-1.31-4.74-1.31-5.7-2.27-2.2-.44-4.4-.84-6.64-1.2l-2.1-.34c-26.6-4.26-51.37-5.58-77.87.08z"/>
  <path fill="#b7410e" d="M223.54 370.36c-2.7 2.1-3.75 4.6-5.11 7.67-.92 1.59-1.84 3.17-2.77 4.74-4.84 9.12-5.11 17.78-2.37 27.66 5.09 14.88 16.7 25.99 30.5 32.93 14.5 6.68 31.02 10.9 46.95 10.88h3.05c12.45-.17 24.87-2.1 36.34-7.14v-1.7l-2.25-.63c-11.79-3.43-11.79-3.43-15.5-8.17-1.22-2.74-1.57-5.28-1.86-8.26l-1.85-.44c-7.18-1.82-12.68-3.57-16.94-9.96-.83-1.54-.83-1.54-1.58-4.26-1.43-3.6-3.44-4.22-6.92-5.8h-2.56v-1.7c-.7-.56-1.4-1.1-2.13-1.66-2.55-2.03-4.26-4.27-6.13-6.93-8.2-11.6-19.14-24.26-33.77-26.94-5.15-.65-9.95-1.24-15.1-.3zM529.65 170.83c-8.3 1.28-15.13 7.46-21.31 12.8-.6.5-1.2 1-1.81 1.53-7.72 7.05-12.13 16.79-15.25 26.6l-.7 1.99c-2.96 8.34-3.88 16.31-3.83 25.14l.01 2.98c.1 6.8.68 12.87 2.82 19.35l1.1 3.8c2.2 7.4 4.45 13.6 9.98 19.22.56.6 1.11 1.2 1.7 1.81a56.65 56.65 0 0 0 11.1 9.27H516l.1-2.62c.86-19.48 8.32-33.94 22.07-47.68-.58-7.68-5.1-14.26-10.73-19.24-2.33-2.37-2.38-5.37-2.38-8.57.52-3.38 2.14-6.2 3.73-9.2 1.02-2.65.92-3.8 0-6.48a78.07 78.07 0 0 0-4.02-5.56c-1.76-3.4-1.62-6.34-.52-9.97a137.6 137.6 0 0 1 2.4-6.05l1.69-4.1.76-1.8c.54-1.51.54-1.51.54-3.22zM252.96 354.85c-.72.21-1.42.43-2.17.64a51.26 51.26 0 0 0-11.9 5.5 15.7 15.7 0 0 0 6.3 2.65c13.47 3.93 23.93 14.49 32.07 25.48l1.29 2.38 1.27 1.88c6.16 1 10.52-.99 16.18-3.3 3.1-1.16 5.28-1.55 8.55-.96 2.1 1 3.99 2.17 5.97 3.41h1.7l.85 2.56c4.22.83 6.34.72 10.24-.85 4.04-.39 6.78-.6 10.23 1.7h2.56v1.7c1.68 1.3 1.68 1.3 3.83 2.67l2.16 1.4c.55.34 1.1.7 1.68 1.05l1.7-.85c-2.63-14.86-11.8-27.8-23.97-36.5a61.04 61.04 0 0 0-18.45-8.8l-2.29-.67c-5.23-1.5-10.41-2.82-15.82-3.49l-2.4-.31a72.88 72.88 0 0 0-29.58 2.71z"/>
  <path fill="#fcfcfc" d="M377.08 216.13c-4.87 3.63-9.1 10.16-10.29 16.1-.65 9.3 1.55 16.61 6.56 24.4 6.74 6.92 14.44 9.62 23.93 9.97 8.13-.11 13.96-2.99 19.84-8.55 5.93-6.85 7.3-14.47 6.8-23.27-.8-6.95-4.5-13.47-9.6-18.22-11.26-8.63-25.38-7.36-37.24-.43z"/>
  <path fill="#b7410e" d="M504.93 300.44c-2.56.85-2.56.85-3.52 2.68-1.34 4.34-1.79 8.81-2.38 13.32l-.72 5.21c-1.51 11.27-1.51 11.27-.2 16.3 1.48 1.95 1.48 1.95 3.3 3.37.6.47 1.19.96 1.8 1.45 3.49 2.35 7.04 2.47 11.1 2 10.34-2.48 21.61-8.08 27.66-17.2 1.36-2.6 2.18-4.58 2.18-7.52l-2.88-.78c-11.36-3.18-20.57-7.52-30.1-14.54l-2.3-1.68c-.7-.51-1.39-1.03-2.1-1.57l-1.84-1.04zM192.62 345.2c-3.27.11-5.78.25-8.25 2.5-3.68 5.7-2.52 14.46-1.28 20.84 2.9 8.45 10.39 18.04 18.28 22.28h1.7l.92-2.65c4.43-12.6 10.57-23.1 21.26-31.46v-1.7l-3.41-.86v-1.7l-1.87-.53-8.31-2.4-2.94-.84-2.79-.8c-.85-.26-1.7-.5-2.58-.75-3.75-1.23-6.57-1.92-10.73-1.93zM122.08 409.58c-8.24 1.25-14.92 11.73-19.62 17.9l-1.53 2.02c-8.74 11.98-17.45 26.53-17.28 41.74l.02 2.76c.02.7.03 1.38.03 2.09l1.71.85 2.5-4.9 1.41-2.75a24.03 24.03 0 0 0 2.06-5.99h1.7c1.04-1.29 2-2.63 2.94-4 3.13-4.44 6.51-8.56 10.13-12.62 2.24-2.57 3.8-4.85 4.84-8.1h1.7c5.5-7.14 10.8-14.69 11.09-23.88-.8-2.99-.8-2.99-1.7-5.12zM533.92 414.7c-2.63 4.2-2.76 7.22-1.7 11.94a59.98 59.98 0 0 0 2.76 6.34l.9 1.76c3.53 6.66 8.2 12.43 12.88 18.31 7.43 9.45 14.4 19.31 18.41 30.71l1.7 1.71c1.98-23.6-8.78-42.53-23.02-60.54l-1.22-1.59c-6.83-8.64-6.83-8.64-10.71-8.64zM516.01 467.56c-1.7 0-1.7 0-3.94 1.38-2.35 2.51-2.44 4.86-2.56 8.22.51 12.54 5.88 24.36 10.35 35.92 2.72 7.1 4.56 13.94 5.2 21.52l.2 2.17.13 1.57c3.5-2.33 3.63-4.45 4.61-8.4.83-4.41.88-8.72.83-13.19l-.03-2.83c-.15-8.76-1.35-16.9-4.73-25.07a61.74 61.74 0 0 1-1.39-3.8 66 66 0 0 0-8.67-17.49zM141.69 465c-3.63 1.22-4.41 3.22-6.3 6.44-2.66 5.66-4.3 11.7-6 17.7-.5 1.45-.5 1.45-1.35 2.3a125.87 125.87 0 0 0-2.88 25.25c0 .7-.02 1.38-.03 2.09.04 4.76.72 9.3 2.91 13.59l2.56 1.7.35-2.54c1.56-10.4 4.66-19.98 8.18-29.86l2.5-7.12 1.57-4.4c2.47-6.94 3.65-13.47 2.75-20.88-1.22-2.14-2.18-2.87-4.26-4.26zM464 442.84c-1.67 1.58-1.67 1.58-3.25 3.67l-1.62 2.07-1.1 1.93.85 2.56c1.85.88 3.62 1.58 5.54 2.23l1.78.64 4.01 1.43c2.6.92 5.17 1.86 7.75 2.83l5.7 2.09 2.76 1.03c10.77 3.9 10.77 3.9 16.1 2.86 2.87-1.4 4.1-2.78 5.82-5.44.64-1.97.64-1.97.85-3.4-11-9.9-30.63-14.5-45.2-14.5zM188.57 440.23c-5.29.62-10.42 1.56-15.6 2.82l-2.36.57c-16.86 4.2-16.86 4.2-22.96 9.45-.7 1.61-.7 1.61-.85 3.41.97 1.6.97 1.6 2.4 3.14l1.4 1.56c2.37 2.28 4.45 2.41 7.68 2.37 4.68-.54 9.09-2.28 13.51-3.82l3-1a150.36 150.36 0 0 0 16-6.4 99.96 99.96 0 0 1 6.32-2.67l-2.45-3.73-1.38-2.1c-2.46-3.54-2.46-3.54-4.71-3.6zM143.98 399.99l-2.76-.02h-2.66l-2.4.01c-2.23.23-3.64.8-5.56 1.93-.25 4.24-.15 6.86 2.56 10.23 3.36 2.43 6.08 3 10.18 3.41l1.8.19 4.21.42c3.07.3 6.14.6 9.2.92 6.32.64 12.64 1.26 18.95 1.88l-.53-1.75-.7-2.3c-.23-.76-.45-1.5-.7-2.28-.63-2.2-.63-2.2-1-4-.42-1.55-.42-1.55-2.19-4.16-3.32-1.34-6.71-1.93-10.23-2.56l-1.68-.44c-5.52-1.4-10.81-1.52-16.5-1.48zM490.53 407.03c-4.08 1.92-5.47 5.37-7.1 9.38-.68 2.56-.68 2.56-.68 5.11 7.67.1 15.28-.17 22.92-.64l3.3-.16c9.87-.62 9.87-.62 13.86-4.31 1.9-2.4 2.5-3.93 2.98-6.93-.42-2.45-.42-2.45-2.18-3.87-8.83-4.05-24.14-1.34-33.1 1.42zM441.83 468.42c-3.47.9-5.83 2.8-8.53 5.11 1.3 3.04 3.07 5 5.39 7.33l2.23 2.24 2.35 2.32 2.28 2.3c11.53 11.5 11.53 11.5 19.25 11.55l2.2.04c2.23-.2 3.61-.78 5.52-1.9-1.01-7.41-8-12.67-13.64-17.06-5.6-4.1-11.28-8.09-17.05-11.93zM212.28 467.27a52.79 52.79 0 0 0-7.98 4.93l-1.57 1.13c-7.18 5.27-14.72 11.18-19.27 18.96v2.56a18.01 18.01 0 0 0 11.94 1.7c5.26-2.47 9.07-6.05 13.22-10.07l1.86-1.77c3.84-3.67 7.62-7.4 11.35-11.18-6.86-7.06-6.86-7.06-9.55-6.26zM185.17 505.93c-.26 8.34 1.1 15.07 5.07 22.44l1 1.88c4.5 8.07 10.26 15.04 18.66 19.17h3.41c-.5-3.85-2.11-6.85-4-10.18a160.62 160.62 0 0 1-7.61-16.06c-1.38-3.21-2.91-6.31-4.52-9.42-.92-1.86-.92-1.86-1.84-4.17-.79-1.95-.79-1.95-1.64-2.8-5.97-.86-5.97-.86-8.53-.86zM470.82 508.5c-3.18-.52-5.55-.43-8.53.84-4.7 6.12-7.21 13.6-9.81 20.8-2.53 6.11-5.8 11.88-8.99 17.68-.81 1.6-.81 1.6-1.66 4.16 3.89.6 6.23-.8 9.34-2.9 10-7.81 17.58-21.35 19.65-33.77.1-2.28.04-4.53 0-6.82zM488.72 334.55c-2.8.53-4.6 1.51-6.91 3.17l-1.94 1.39-2.02 1.46-2.04 1.46-5 3.6c.69 3.03 1.83 5.35 3.37 8.05a63.23 63.23 0 0 1 4.31 9 61.8 61.8 0 0 0 23.02-8.52c-1.19-2.87-2.43-4.12-5-5.8-4.37-3.16-6.4-6.27-7.57-11.63l-.22-2.18z"/>
  <path fill="#fcfcfc" d="M282.38 184.85h-2.85c-11.14.26-20.86 3.58-29.55 10.7l-1.6 1.3c-5.79 5.17-10.58 13.95-11.36 21.73-.09 1.93-.12 3.84-.1 5.76l.01 2.07c.1 5.15.74 9.58 2.81 14.34l.86 2.1A41.15 41.15 0 0 0 261.76 264c10.08 3.64 21.83 4.03 31.87.06 11.49-5.42 20.42-12.13 25.41-24.15a46.5 46.5 0 0 0 1.97-14.45v-2.04c-.1-4.88-.62-8.95-2.82-13.36l-1-2.2c-4.77-9.63-12.23-18.42-22.6-22.04-4.03-.99-8.09-.97-12.21-.96z"/>
  <path fill="#471905" d="M288.35 215.17c-2.8 1.51-5.38 3.08-6.83 5.97-.49 4.03-.36 6.95 1.5 10.6 2.21 2.53 3.8 3.79 7.19 4.02 3.42-.32 5.45-.74 8.37-2.68 2.25-3.38 2.8-6.2 2.56-10.23-2.34-5.84-6.56-8.64-12.8-7.68z"/>
  <path fill="#b7410e" d="M301.99 270.6c-3.12.53-5.87 1.4-8.8 2.6-.75.31-1.5.63-2.28.94l-1.71.72.72 2.96.93 3.91.47 1.95.46 1.92.42 1.74c.54 2.65.88 5.31 1.26 7.98l16.2-3.4-2.4-4.91A72.6 72.6 0 0 1 302 270.6zM377.02 271.45l-.38 1.93c-1.26 5.77-3 10.24-6.26 15.16-1.03 1.67-1.03 1.67-1.03 3.37a36.97 36.97 0 0 0 11.94.86c1.63-1.63 1.63-4.39 2.08-6.56.78-3.9 1.7-7.6 3.03-11.35l-3.73-1.7-2.1-.96c-1.84-.75-1.84-.75-3.55-.75z"/>
  <path fill="#471905" d="M386.4 233.08c-2.13 1.28-2.13 1.28-3.4 3.4-.61 4.25-.68 5.85 1.75 9.39 3.14 2.14 4.75 2.32 8.48 1.7 2.82-2.22 4.1-3.94 4.58-7.5-.32-2.73-.32-2.73-2.03-5.18-3.54-2.5-5.1-2.43-9.38-1.81z"/>
  <path fill="#b7410e" d="M217.57 330.28a84.3 84.3 0 0 0-17.05 5.97c4.03 2.13 8.04 3.41 12.63 3.41 1.87-.85 1.87-.85 3.41-3.25 1.01-2.72 1.01-2.72 1.01-6.13zM585.08 174.24h-1.7l-.03 1.46c-.05 2.22-.12 4.43-.2 6.64l-.03 2.3c-.18 5.06-.94 9.33-4.01 13.48a22.26 22.26 0 0 1-7.84 3.94c-1.54 1.17-1.54 1.17-1.94 4.08l-.03 3.6c-.34 10.03-.34 10.03-3.83 13.96a35.95 35.95 0 0 1-5.12 3.32c-4.82 2.66-4.82 2.66-6.08 6.22l-.84 3.25c-1.74 5.86-4.28 9.43-8.63 13.8-13.37 13.62-18.44 26.27-18.84 45.25.32 3.7.7 6.91 2.84 10.02 2.26 1.39 4.56 1.94 7.15 2.5l1.94.5c1.8.46 3.6.87 5.4 1.26l2.25.52c11.22 1.87 19.8-.7 28.98-7.13 1.54-1.2 3.07-2.4 4.59-3.62l2.2-1.73c14.3-11.86 19.05-29.18 21.67-46.88l.34-2.2c3.28-25.96-2.63-53.32-18.24-74.54z"/>
  <path d="M117 607.01H23.15l75.41-283.27L23.15 40.46H117L192.4 325.3z" style="fill:#fcfcfc;stroke:#471905;stroke-width:22.3031"/>
  <path d="M622.2 531.03v74.85H177.18v-74.85z" style="fill:#fcfcfc;stroke:#471905;stroke-width:22.8012"/>
</svg>
