<svg xmlns="http://www.w3.org/2000/svg" width="640" height="640" preserveAspectRatio="xMidYMid">
  <path fill="#471905" d="M176.72 158.9c17.18 5.4 34.52 19.4 42.85 35.34a99.29 99.29 0 0 1 6.34 15.95c7.2 23.33 5.53 50.48-5.8 72.26a36.9 36.9 0 0 1-6.56 7.97c-1.02 1.5-1.02 1.5-.82 3.6a87.43 87.43 0 0 0 1.83 5.46c2.6 7.64 4.43 15.89 3.94 23.98l2.29.66a25.62 25.62 0 0 1 7.25 4.2c4.62 3.47 9.41 6.6 14.33 9.64l.58-1.72c2.35-5.3 6.03-9.93 9.4-14.63.87-1.22 1.7-2.47 2.52-3.72 10-13.84 38.6-18.07 54.2-21.93a50.3 50.3 0 0 0 6.63-2.34c-.58-2.52-1.2-5.02-1.87-7.51-.68-2.72-.68-2.72-.94-4.83-.4-2.2-.69-3.15-2.3-4.72a65.15 65.15 0 0 0-8.19-1.59c-9-1.33-15.9-6.05-21.67-13.04-6.58-9.44-8.16-18.47-6.8-29.7 1.93-10.68 7.4-19.24 16.2-25.58 2.2-1.39 4.4-2.45 6.82-3.42l1.9-.77c10.7-3.78 21.25-2.1 31.35 2.48 9.18 5.3 14.77 12.43 18.76 22.17 2.33 8.71 1.79 18.63-2.06 26.74a49 49 0 0 1-4.6 6.3c-2.17 2.63-2.7 3.48-3.25 6.98.77 7.47 3.65 15.97 9.06 21.37 2.11.07 4.2.08 6.3.05h1.95l8.25-.07c19.82-.15 19.82-.15 23.57 1.73l.64-2.08a74.15 74.15 0 0 1 2.77-6.77A43.81 43.81 0 0 0 395 270.6l.34-1.74c.2-1.73.2-1.73-.34-5.09a36.65 36.65 0 0 0-4.92-4.34c-6.95-5.95-12.4-16.17-13.19-25.32-.91-21.56-.91-21.56 4.47-30.88l1.34-2.43c6.84-11.55 16.3-20.93 29.36-24.85 15.8-3.45 31.78-.85 45.41 7.72 9.1 6.44 17.04 14.64 20.24 25.53l.72 1.81c3.56 9.7 2.8 21-.72 30.6l-.71 2.16c-2.02 5.62-5.04 10.17-8.67 14.89l-1.22 1.65c-6.72 8.52-16.06 12.07-26.06 15.4a188.24 188.24 0 0 1-8.37.59c-1.47.1-2.95.18-4.42.26-2.34 6.67-4 12.52-3.41 19.62 2.51.83 4.79 1.09 7.42 1.3 7.67.68 15.22 1.82 22.8 3.22l2.74.49c12.66 2.44 25.11 7.95 33.55 18l.85 1.71c2 .67 3.99 1.26 6.02 1.81 13.56 4.03 26.56 10.34 34.05 22.92 4.16 8.25 3.3 17.52.73 26.14-.73 2-.73 2-1.72 3.7-1.81 4.34 1.47 10.3 2.84 14.53.71 2.53.71 2.53.71 5.09l2.69-.69c3.08-.79 6.18-1.55 9.27-2.3l3.98-1.03c4.53-1.08 8.95-1.27 13.58-1.31l1.83-.03c6.17.04 11.9 1.27 17.25 4.5 2.56 2.82 2.56 2.82 2.56 5.12l2.08.48c4.19 1.69 7.25 4.35 10.71 7.2.85.62 1.7 1.26 2.56 1.91 11.47 9.74 20.98 25.46 27.07 39.06l.76 1.68c4.28 9.87 5.84 22.24 2.9 32.7-1.8 3.83-3.92 6.98-7.7 9.06-2.14.53-2.14.53-4.27 0-3.83-3.96-5.91-8.26-8.2-13.22a90.7 90.7 0 0 0-13.97-20.89l-2.57-2.97-1.3-1.5-1.3-1.5c-.42-.5-.85-.98-1.3-1.49-7.06-8.23-12.94-16.73-17.4-26.65l-1.86.83a21.94 21.94 0 0 1-6.74 1.33l-2.54.17-2.72.18a474.65 474.65 0 0 0-28.8 2.96l-2.24.3c-2 .2-2 .2-5.41.2v2.56c.48.01.98.03 1.48.03 14.3.8 32 5.5 42.65 15.64 1.68 2.2 2.6 4.62 3.6 7.18.88 1.9 1.76 3 3.21 4.49 5.94 6.44 9.95 16.28 12.15 24.67.12.41.12.41.66 2.47.66 2.58 1.29 5.17 1.9 7.77l.51 2.09c3.39 14.38 3.7 29.17-3.26 42.46-2.95 4.59-6.35 6.82-11.48 8.47-2.82-.16-2.82-.16-5.05-1.79-2.75-3.56-2.87-6.5-3.26-10.9-1.36-11.7-5.23-21.93-9.53-32.82-3.7-9.31-7.16-18.65-6.3-28.83l-2.88.21c-3.81 0-6.57-1.15-10.02-2.67a62.53 62.53 0 0 0-8.41-2.44c-7.25-1.85-13.83-4.86-20.59-8.02a103 103 0 0 0-5.85-2.43l-1.7 2.56 2.78 1.87c24.1 16.5 24.1 16.5 28.77 27.12.78 4.98-.04 9.58-.86 14.5 0 1.5.03 3.01.05 4.52.1 14.71-7.81 30.2-17.83 40.71-6.23 6.23-13.47 11.02-22.5 11.3-3.93-.32-6.37-.87-9.17-3.67-1.21-6.14 1.12-10.97 3.89-16.3l2.36-4.76 1.18-2.33c1.49-2.97 2.9-5.98 4.3-9.01 2.85-6.15 2.85-6.15 4.24-9.1l1.4-3 1.25-2.64a28.34 28.34 0 0 0 1.84-5.72c-8.08-7.31-8.08-7.31-11.77-10.45-5.15-4.47-9.88-9.43-14.66-14.28l-1.71.7c-3.65 1.44-7.35 2.8-11.03 4.16l-1.75.65-1.75.65a66.3 66.3 0 0 0-4.49 2.04c-4.21 1.58-8.22 1.8-12.69 2.08-6.05.45-11.98.99-17.95 2.1-7.9 1.35-15.87 1.4-23.87 1.4l-3.5.01-7.34.01c-2.45 0-4.9 0-7.35.02-22.37.1-44.82-.22-66.87-4.44l-2.59-.48c-2.81-.52-5.63-1.06-8.45-1.6l-2.62-.5c-14.6-2.91-14.6-2.91-20.45-6.8l-.6 1.44c-1.4 2.48-3.13 4.21-5.14 6.22l-1.2 1.22-2.53 2.52a535 535 0 0 0-3.8 3.82c-4.41 4.4-8.86 8.54-14.02 12.06 1.38 3.53 2.9 6.98 4.46 10.42l.81 1.79 1.71 3.75 2.53 5.6c3.1 6.85 6.33 13.6 9.83 20.26 1.7 3.8 1.92 6.11 1.13 10.2-1.5 2.18-1.5 2.18-4.26 3.4-8.96 1.26-15.92-1.1-23.08-6.39-8.8-7.5-14.1-17.29-18.7-27.7l-.75-1.62c-2.03-4.76-2.21-9.24-2.3-14.38-.02-1.57-.06-3.15-.1-4.73l-.04-2.09c-.25-2.11-.93-3.46-1.93-5.33-.81-5.05.77-8.15 3.46-12.28 6.44-8.62 15.13-14.8 23.82-20.97l1.5-1.06c3.4-2.35 3.4-2.35 5.33-2.35l-.86-3.41-1.9.84c-21.28 9.38-21.28 9.38-31.88 12.96l-2.09.72c-4.78 1.56-9.42 2.2-14.43 2.53l.07 1.59c.15 5.36-.56 9.8-2.2 14.88l-.69 2.19a328.18 328.18 0 0 1-7.56 20.76l-1.56 4.07-.73 1.88c-2.13 5.87-2.7 11.78-3.3 17.96-.7 6.06-.7 6.06-2.7 8.84-2.74 1.77-4.58 1.6-7.77 1.16-7.51-3.84-11.1-10.14-13.64-17.9-3.14-10.8-1.27-24.34 1.7-34.97l.72-3.05c3.02-12.43 7.33-23.63 15.49-33.61 1.76-2.2 2.58-3.49 3.46-6.23 2.7-6.56 10.84-9.62 16.91-12.32 4.6-1.84 9.32-3.07 14.1-4.31l3-.81c7.24-1.91 7.24-1.91 11.13-1.91v-1.7l-1.57-.08c-5.42-.28-10.85-.57-16.27-.88l-6.06-.32-8.74-.47-2.72-.13c-5.2-.32-9.32-1.14-14.1-3.24l-.3 1.84c-2.48 10.81-10.74 20.2-17.44 28.77-6.92 8.85-12.69 17.6-16.93 28.04-3.93 9.43-3.93 9.43-7.96 12.12-2.45.38-2.45.38-5.12 0-5.05-3.97-7.73-9.01-8.52-15.35-.46-8.2-.12-15.22 2.55-23.02.24-.72.5-1.43.74-2.17 1.97-5.6 4.32-10.86 7.1-16.11l1.25-2.35c5.13-9.55 11.63-17.54 19.05-25.41l1.6-1.74a34.29 34.29 0 0 1 10.34-7.64h1.7l.6-1.92c1.67-3.53 3.67-5.07 7.3-6.53 11.62-3.7 25.05-2.4 36.44 1.62l-.11-1.53c-.28-6.16 1.17-10.83 3.53-16.47l.98-2.48c.8-2 1.6-3.97 2.43-5.95l-2.59-.28a40.5 40.5 0 0 1-9.78-2.92l-1.7-.69c-5.63-2.37-10.6-4.75-13.22-10.6v-2.56l-2.77.21c-12.08-.1-23.74-8.35-32.27-16.33-3.75-4.14-6.42-8.57-7.5-14.05-.55-1.66-.55-1.66-1.8-3.09a63.45 63.45 0 0 0-8.18-2.13c-9.16-1.9-16.28-7.34-23.37-13.21l-1.56-1.21c-16.06-12.89-22.26-34.21-24.5-53.9-2.82-30.15 1.97-57.79 20.54-82.2 3.57-4.28 7.05-7.88 12.6-9.14 3.15.88 3.95 2.2 5.71 4.9.43 2.61.43 2.61.43 5.5l.05 3.16v3.28c0 2.15.03 4.3.06 6.45v2.88c.36 2.92 1.13 4.5 2.87 6.87 1.85 1.23 1.85 1.23 3.84 2.18 2.97 1.44 4.86 2.52 6.4 5.5.4 3.2.33 6.44.3 9.68.07 3.64.19 5.2 2.5 8.17a25.64 25.64 0 0 0 5.82 3.51c2.77 1.3 4.4 2.29 5.87 5.07.58 1.7 1.15 3.4 1.7 5.11l1.44-2 1.87-2.58 1.86-2.58c1.66-2.22 1.66-2.22 3.36-3.92-.16-3.35-1.18-5.93-2.6-8.9-1.6-3.46-2.17-6-1.66-9.86 1.13-2.9 2.12-4.72 4.43-6.82 1.54-1.7 1.54-1.7 1.87-3.8-.58-5.24-3.06-9.84-5.2-14.61-4.5-10.42-4.5-10.42-3.66-15.7 3.79-3.58 7.13-2.77 11.94-1.7z"/>
  <path fill="#b7410e" d="M402.32 302.4c5.07 1.05 10.17 1.91 15.28 2.78a637.37 637.37 0 0 0 25.04 3.84c13.62 1.89 25.78 4.62 37.54 12.05 1.87 3.04 1.02 7.09.84 10.56-.13 4.26.46 6.8 2.66 10.6v1.7l-1.34.6c-3.17 1.48-5.32 2.64-7.77 5.2l-1.97 1.87c-3.67-.3-6.93-1.88-10.29-3.3a67.5 67.5 0 0 0-28.08-5.6l-3.04.02c-23 .43-44.31 8.09-61 24.27-11.08 11.78-18.1 27.09-17.96 43.33.14 1.82.14 1.82 1 4.38 3.33 1.1 4.99 1.32 8.2-.24a148.3 148.3 0 0 0 12.63-9.08c1.33-.91 1.33-.91 3.04-.91v-1.71h5.11v1.7c5.05 1.44 10.06 1.86 14.76-.63a99.55 99.55 0 0 0 4.38-3.9c2.18-1.43 2.18-1.43 5.11-1.33a77.9 77.9 0 0 1 8.16 2.45v1.71l-2.4 1.7c-2.64 2.05-3.14 3.65-3.79 6.88-.68 2.73-.98 3.86-3.33 5.46-2.2.88-4.38 1.57-6.68 2.16-6.83 1.87-6.83 1.87-9.38 4.26-.6 2.03-.6 2.03-.86 4.27-.47 3.92-.47 3.92-2.33 5.58a19.03 19.03 0 0 1-6.07 2.52l-2.36.64-4.9 1.28c-.8.21-1.57.41-2.38.64l-2.15.56a17.06 17.06 0 0 0-5.39 3.27c.44 3.79 1.6 5.8 4.27 8.53a69 69 0 0 0 5.97 3.41l1.67 1c22.5 12.75 51.07 9.62 74.84 3.26 20.13-6.17 38.04-17.53 49.2-35.8 3-5.74 5.63-11.98 5.91-18.5.1-.46.1-.46.54-2.83 2.56-1.27 2.56-1.27 4.17-1.77 3.14-1.36 5.38-3.86 7.84-6.2 1.63-1.4 1.63-1.4 3.34-1.4l.85-2.56 2.56.85c3.5 12.31-.88 23.35-6.82 34.1-4.68 7.9-10.37 15.12-16.2 22.18l-1.12 1.35c-11.26 13.55-25.32 22.36-42.07 27.48-2.86 1.01-2.86 1.01-4.95 2.38-2.92 1.6-5.63 1.57-8.9 1.61-4.95.15-9.75.56-14.66 1.36-14.06 2.23-28.19 2.02-42.38 1.96-3.69-.02-7.37 0-11.05.01-22.65.08-45.4-.43-67.58-5.46l-3.06-.64c-4.95-1.06-9.42-2.3-14-4.47l-4.15-1.55c-16.13-6.48-28.04-22.08-39.17-34.85l-1.28-1.46c-2.23-2.6-3.8-4.92-4.85-8.19h-1.7c-2.56-3.73-2.56-3.73-2.56-5.97h-1.7c-5.75-8-10.21-16.44-9.38-26.43 1.2-6.74 3.92-12.74 6.9-18.87.85-1.76 1.67-3.54 2.5-5.31l1.78-3.85.85-1.81a98.77 98.77 0 0 1 8.32-14.71 76.05 76.05 0 0 0 4.9-8.37c4.48-8.42 10.79-19.04 19.94-22.44 3.4-1.26 6.74-2.56 10.07-3.99 4.64-1.87 9.45-2.97 14.31-4.14 4.1-1 8.16-2.1 12.23-3.22l2.03-.55c4.74-1.31 4.74-1.31 5.7-2.27 2.21-.44 4.41-.84 6.65-1.2l2.1-.34c26.6-4.26 51.36-5.58 77.86.08z"/>
  <path fill="#b7410e" d="M483.68 370.36c2.7 2.1 3.75 4.6 5.12 7.67.92 1.59 1.84 3.17 2.77 4.74 4.83 9.12 5.1 17.78 2.37 27.66-5.1 14.88-16.7 25.99-30.51 32.93-14.49 6.68-31.01 10.9-46.95 10.88h-3.04c-12.45-.17-24.87-2.1-36.34-7.14v-1.7l2.24-.63c11.8-3.43 11.8-3.43 15.5-8.17 1.22-2.74 1.58-5.28 1.87-8.26l1.84-.44c7.19-1.82 12.68-3.57 16.94-9.96.83-1.54.83-1.54 1.58-4.26 1.43-3.6 3.45-4.22 6.92-5.8h2.56v-1.7l2.13-1.66c2.55-2.03 4.27-4.27 6.13-6.93 8.2-11.6 19.15-24.26 33.78-26.94 5.15-.65 9.94-1.24 15.1-.3zM177.57 170.83c8.3 1.28 15.14 7.46 21.32 12.8.6.5 1.2 1 1.8 1.53 7.72 7.05 12.13 16.79 15.25 26.6l.71 1.99c2.96 8.34 3.87 16.31 3.82 25.14v2.98c-.11 6.8-.68 12.87-2.82 19.35l-1.1 3.8c-2.21 7.4-4.45 13.6-9.99 19.22-.55.6-1.1 1.2-1.69 1.81a56.65 56.65 0 0 1-11.1 9.27h-2.56l-.09-2.62c-.86-19.48-8.33-33.94-22.08-47.68.58-7.68 5.1-14.26 10.73-19.24 2.34-2.37 2.39-5.37 2.38-8.57-.52-3.38-2.13-6.2-3.73-9.2-1.02-2.65-.92-3.8 0-6.48a78.07 78.07 0 0 1 4.03-5.56c1.76-3.4 1.62-6.34.52-9.97a137.6 137.6 0 0 0-2.41-6.05c-.57-1.37-1.13-2.73-1.68-4.1l-.76-1.8c-.55-1.51-.55-1.51-.55-3.22zM454.26 354.85l2.17.64a51.26 51.26 0 0 1 11.9 5.5 15.7 15.7 0 0 1-6.29 2.65c-13.47 3.93-23.93 14.49-32.08 25.48l-1.28 2.38-1.28 1.88c-6.15 1-10.52-.99-16.18-3.3-3.1-1.16-5.28-1.55-8.54-.96-2.1 1-4 2.17-5.97 3.41H395l-.86 2.56c-4.21.83-6.33.72-10.23-.85-4.04-.39-6.79-.6-10.23 1.7h-2.56v1.7c-1.68 1.3-1.68 1.3-3.84 2.67l-2.16 1.4c-.55.34-1.1.7-1.68 1.05l-1.7-.85c2.63-14.86 11.8-27.8 23.98-36.5a61.04 61.04 0 0 1 18.44-8.8l2.3-.67c5.23-1.5 10.4-2.82 15.82-3.49l2.39-.31a72.88 72.88 0 0 1 29.58 2.71z"/>
  <path fill="#fcfcfc" d="M330.14 216.13c4.88 3.63 9.1 10.16 10.3 16.1.65 9.3-1.55 16.61-6.57 24.4-6.73 6.92-14.43 9.62-23.92 9.97-8.14-.11-13.97-2.99-19.84-8.55-5.94-6.85-7.31-14.47-6.8-23.27.8-6.95 4.5-13.47 9.59-18.22 11.27-8.63 25.39-7.36 37.24-.43z"/>
  <path fill="#b7410e" d="M202.3 300.44c2.56.85 2.56.85 3.51 2.68 1.34 4.34 1.8 8.81 2.38 13.32l.73 5.21c1.5 11.27 1.5 11.27.2 16.3-1.48 1.95-1.48 1.95-3.3 3.37-.6.47-1.2.96-1.8 1.45-3.5 2.35-7.04 2.47-11.1 2-10.34-2.48-21.62-8.08-27.67-17.2-1.36-2.6-2.17-4.58-2.17-7.52l2.87-.78c11.37-3.18 20.57-7.52 30.1-14.54l2.31-1.68c.7-.51 1.38-1.03 2.1-1.57l1.84-1.04zM514.6 345.2c3.28.11 5.78.25 8.25 2.5 3.69 5.7 2.53 14.46 1.28 20.84-2.89 8.45-10.38 18.04-18.28 22.28h-1.7l-.92-2.65c-4.43-12.6-10.57-23.1-21.25-31.46v-1.7l3.4-.86v-1.7l1.88-.53 8.3-2.4 2.94-.84 2.8-.8c.84-.26 1.7-.5 2.57-.75 3.76-1.23 6.57-1.92 10.73-1.93zM585.15 409.58c8.24 1.25 14.91 11.73 19.61 17.9l1.54 2.02c8.74 11.98 17.44 26.53 17.27 41.74l-.02 2.76-.03 2.09-1.7.85-2.51-4.9-1.4-2.75a24.03 24.03 0 0 1-2.06-5.99h-1.71c-1.03-1.29-2-2.63-2.93-4a141.08 141.08 0 0 0-10.13-12.62c-2.25-2.57-3.8-4.85-4.85-8.1h-1.7c-5.5-7.14-10.79-14.69-11.09-23.88.8-2.99.8-2.99 1.7-5.12zM173.3 414.7c2.63 4.2 2.76 7.22 1.71 11.94a59.98 59.98 0 0 1-2.77 6.34l-.9 1.76c-3.52 6.66-8.2 12.43-12.88 18.31-7.42 9.45-14.4 19.31-18.4 30.71l-1.71 1.71c-1.97-23.6 8.78-42.53 23.02-60.54l1.22-1.59c6.83-8.64 6.83-8.64 10.72-8.64zM191.21 467.56c1.71 0 1.71 0 3.94 1.38 2.36 2.51 2.44 4.86 2.56 8.22-.51 12.54-5.87 24.36-10.35 35.92-2.71 7.1-4.55 13.94-5.2 21.52l-.2 2.17-.12 1.57c-3.5-2.33-3.64-4.45-4.62-8.4-.82-4.41-.88-8.72-.82-13.19l.02-2.83c.15-8.76 1.36-16.9 4.73-25.07.51-1.25.97-2.53 1.4-3.8a66 66 0 0 1 8.66-17.49zM565.54 465c3.62 1.22 4.4 3.22 6.3 6.44 2.65 5.66 4.29 11.7 6 17.7.49 1.45.49 1.45 1.34 2.3a125.87 125.87 0 0 1 2.88 25.25l.04 2.09c-.05 4.76-.73 9.3-2.92 13.59l-2.56 1.7-.35-2.54c-1.56-10.4-4.65-19.98-8.17-29.86l-2.51-7.12-1.57-4.4c-2.46-6.94-3.64-13.47-2.75-20.88 1.22-2.14 2.19-2.87 4.27-4.26zM243.23 442.84c1.67 1.58 1.67 1.58 3.25 3.67l1.62 2.07 1.1 1.93-.86 2.56a50.84 50.84 0 0 1-5.54 2.23l-1.77.64-4.02 1.43c-2.6.92-5.17 1.86-7.75 2.83l-5.7 2.09-2.76 1.03c-10.77 3.9-10.77 3.9-16.1 2.86-2.86-1.4-4.1-2.78-5.81-5.44-.64-1.97-.64-1.97-.85-3.4 11-9.9 30.62-14.5 45.19-14.5zM518.66 440.23c5.28.62 10.42 1.56 15.6 2.82l2.36.57c16.85 4.2 16.85 4.2 22.95 9.45.7 1.61.7 1.61.85 3.41-.97 1.6-.97 1.6-2.4 3.14l-1.4 1.56c-2.36 2.28-4.44 2.41-7.67 2.37-4.69-.54-9.1-2.28-13.52-3.82l-3-1a150.36 150.36 0 0 1-16-6.4 99.96 99.96 0 0 0-6.32-2.67l2.45-3.73 1.38-2.1c2.47-3.54 2.47-3.54 4.72-3.6zM563.25 399.99l2.76-.02h2.66l2.4.01c2.23.23 3.64.8 5.55 1.93.25 4.24.16 6.86-2.55 10.23-3.36 2.43-6.08 3-10.18 3.41l-1.81.19-4.2.42c-3.08.3-6.14.6-9.21.92-6.31.64-12.63 1.26-18.94 1.88l.53-1.75.7-2.3.69-2.28c.64-2.2.64-2.2 1-4 .43-1.55.43-1.55 2.2-4.16 3.32-1.34 6.7-1.93 10.23-2.56.55-.15 1.1-.3 1.68-.44 5.51-1.4 10.8-1.52 16.49-1.48zM216.7 407.03c4.08 1.92 5.47 5.37 7.1 9.38.67 2.56.67 2.56.67 5.11-7.67.1-15.27-.17-22.92-.64l-3.3-.16c-9.87-.62-9.87-.62-13.86-4.31-1.89-2.4-2.5-3.93-2.98-6.93.43-2.45.43-2.45 2.18-3.87 8.84-4.05 24.14-1.34 33.1 1.42zM265.4 468.42c3.47.9 5.83 2.8 8.52 5.11-1.3 3.04-3.07 5-5.39 7.33l-2.23 2.24-2.34 2.32-2.29 2.3c-11.53 11.5-11.53 11.5-19.24 11.55l-2.21.04c-2.23-.2-3.6-.78-5.52-1.9 1.02-7.41 8-12.67 13.64-17.06 5.6-4.1 11.28-8.09 17.06-11.93zM494.95 467.27a52.79 52.79 0 0 1 7.97 4.93l1.57 1.13c7.18 5.27 14.73 11.18 19.27 18.96v2.56a18.01 18.01 0 0 1-11.94 1.7c-5.26-2.47-9.07-6.05-13.21-10.07l-1.87-1.77c-3.84-3.67-7.61-7.4-11.35-11.18 6.86-7.06 6.86-7.06 9.56-6.26zM522.05 505.93c.27 8.34-1.1 15.07-5.06 22.44l-1 1.88c-4.51 8.07-10.27 15.04-18.67 19.17h-3.4c.5-3.85 2.1-6.85 4-10.18a160.62 160.62 0 0 0 7.6-16.06c1.38-3.21 2.91-6.31 4.53-9.42.92-1.86.92-1.86 1.84-4.17.78-1.95.78-1.95 1.63-2.8 5.97-.86 5.97-.86 8.53-.86zM236.4 508.5c3.19-.52 5.56-.43 8.53.84 4.71 6.12 7.22 13.6 9.82 20.8 2.52 6.11 5.8 11.88 8.98 17.68.81 1.6.81 1.6 1.67 4.16-3.9.6-6.24-.8-9.35-2.9-10-7.81-17.57-21.35-19.64-33.77-.1-2.28-.05-4.53 0-6.82zM218.5 334.55c2.8.53 4.61 1.51 6.92 3.17a617.35 617.35 0 0 1 3.95 2.85l2.05 1.46 4.99 3.6c-.69 3.03-1.83 5.35-3.36 8.05a63.23 63.23 0 0 0-4.32 9 61.8 61.8 0 0 1-23.02-8.52c1.2-2.87 2.43-4.12 5.01-5.8 4.37-3.16 6.4-6.27 7.57-11.63l.21-2.18z"/>
  <path fill="#fcfcfc" d="M424.85 184.85h2.84c11.14.26 20.86 3.58 29.56 10.7l1.6 1.3c5.78 5.17 10.57 13.95 11.36 21.73.08 1.93.11 3.84.1 5.76l-.02 2.07c-.1 5.15-.74 9.58-2.81 14.34l-.85 2.1A41.15 41.15 0 0 1 445.46 264c-10.07 3.64-21.82 4.03-31.87.06-11.48-5.42-20.42-12.13-25.4-24.15a46.5 46.5 0 0 1-1.98-14.45l.01-2.04c.1-4.88.61-8.95 2.81-13.36l1.01-2.2c4.77-9.63 12.23-18.42 22.6-22.04 4.02-.99 8.08-.97 12.2-.96z"/>
  <path fill="#471905" d="M418.88 215.17c2.8 1.51 5.38 3.08 6.82 5.97.5 4.03.37 6.95-1.5 10.6-2.21 2.53-3.8 3.79-7.18 4.02-3.43-.32-5.46-.74-8.37-2.68-2.25-3.38-2.8-6.2-2.56-10.23 2.33-5.84 6.56-8.64 12.79-7.68z"/>
  <path fill="#b7410e" d="M405.24 270.6c3.12.53 5.86 1.4 8.79 2.6.76.31 1.5.63 2.28.94l1.72.72-.72 2.96-.94 3.91c-.15.64-.3 1.29-.47 1.95l-.46 1.92-.42 1.74c-.53 2.65-.87 5.31-1.26 7.98l-16.2-3.4 2.4-4.91a72.6 72.6 0 0 0 5.28-16.41zM330.2 271.45l.38 1.93c1.27 5.77 3 10.24 6.26 15.16 1.03 1.67 1.03 1.67 1.03 3.37a36.97 36.97 0 0 1-11.93.86c-1.63-1.63-1.64-4.39-2.08-6.56-.79-3.9-1.7-7.6-3.04-11.35l3.74-1.7 2.1-.96c1.83-.75 1.83-.75 3.54-.75z"/>
  <path fill="#471905" d="M320.82 233.08c2.13 1.28 2.13 1.28 3.41 3.4.6 4.25.68 5.85-1.76 9.39-3.13 2.14-4.74 2.32-8.47 1.7-2.82-2.22-4.11-3.94-4.59-7.5.33-2.73.33-2.73 2.03-5.18 3.54-2.5 5.1-2.43 9.38-1.81z"/>
  <path fill="#b7410e" d="M489.65 330.28a84.3 84.3 0 0 1 17.05 5.97c-4.03 2.13-8.04 3.41-12.62 3.41-1.87-.85-1.87-.85-3.42-3.25-1.01-2.72-1.01-2.72-1.01-6.13zM122.15 174.24h1.7l.03 1.46c.04 2.22.12 4.43.19 6.64l.03 2.3c.19 5.06.95 9.33 4.02 13.48a22.26 22.26 0 0 0 7.83 3.94c1.55 1.17 1.55 1.17 1.95 4.08l.02 3.6c.34 10.03.34 10.03 3.84 13.96a35.95 35.95 0 0 0 5.12 3.32c4.81 2.66 4.81 2.66 6.07 6.22l.85 3.25c1.74 5.86 4.27 9.43 8.63 13.8 13.36 13.62 18.43 26.27 18.83 45.25-.32 3.7-.69 6.91-2.84 10.02-2.26 1.39-4.56 1.94-7.14 2.5l-1.95.5c-1.8.46-3.6.87-5.4 1.26l-2.24.52c-11.22 1.87-19.81-.7-28.99-7.13-1.54-1.2-3.07-2.4-4.58-3.62l-2.21-1.73c-14.3-11.86-19.04-29.18-21.67-46.88-.1-.72-.22-1.45-.34-2.2-3.27-25.96 2.64-53.32 18.25-74.54z"/>
  <path d="M117 607.01H23.15l75.41-283.27L23.15 40.46H117L192.4 325.3z" style="fill:#fcfcfc;stroke:#471905;stroke-width:22.3031"/>
  <path d="M622.2 531.03v74.85H177.18v-74.85z" style="fill:#fcfcfc;stroke:#471905;stroke-width:22.8012"/>
</svg>
